<?xml version="1.0" standalone="no"?>
<!DOCTYPE svg PUBLIC "-//W3C//DTD SVG 20010904//EN"
 "http://www.w3.org/TR/2001/REC-SVG-20010904/DTD/svg10.dtd">
<svg version="1.0" xmlns="http://www.w3.org/2000/svg"
 width="200.000000pt" height="200.000000pt" viewBox="0 0 200.000000 200.000000"
 preserveAspectRatio="xMidYMid meet">
<metadata>
Created by potrace 1.11, written by Peter Selinger 2001-2013
</metadata>
<g transform="translate(0.000000,200.000000) scale(0.100000,-0.100000)"
fill="#000000" stroke="none">
<path d="M430 1819 c-162 -42 -277 -167 -310 -339 -38 -195 58 -439 284 -720
50 -63 419 -439 552 -563 l41 -38 114 102 c411 368 577 563 694 814 101 215
110 359 32 510 -44 84 -136 174 -222 216 -65 32 -76 34 -170 34 -111 0 -176
-17 -257 -67 -59 -37 -129 -116 -160 -180 -21 -45 -38 -62 -38 -37 0 21 -80
127 -129 171 -50 45 -129 89 -186 103 -60 15 -172 12 -245 -6z"/>
</g>
</svg>
